<svg width="200.000000" height="120.000000" viewBox="0 0 200 120" fill="none" xmlns="http://www.w3.org/2000/svg" xmlns:xlink="http://www.w3.org/1999/xlink">
	<desc>
			Created with Pixso.
	</desc>
	<defs>
		<clipPath id="clip130_2090">
			<rect id="J.B.-Hunt-Logo logo" width="154.000000" height="42.000000" transform="translate(23.000000 39.000000)" fill="white" fill-opacity="0"/>
		</clipPath>
		<clipPath id="clip130_2089">
			<rect id="Frame 27" width="200.000000" height="120.000000" fill="white" fill-opacity="0"/>
		</clipPath>
	</defs>
	<g clip-path="url(#clip130_2089)">
		<rect id="J.B.-Hunt-Logo logo" width="154.000000" height="42.000000" transform="translate(23.000000 39.000000)" fill="#FFFFFF" fill-opacity="0"/>
		<g clip-path="url(#clip130_2090)">
			<path id="path169" d="M176.759 80.7612L23.239 80.7612L23.239 39.239L176.759 39.239L176.759 80.7612Z" fill="#231F20" fill-opacity="1.000000" fill-rule="nonzero"/>
			<path id="path171" d="M176.76 80.7612L176.76 39.239L23.2402 39.239L23.2402 80.7612L176.76 80.7612Z" stroke="#000000" stroke-opacity="1.000000" stroke-width="0.572500"/>
			<path id="path173" d="M173.305 77.3257L26.6914 77.3257L26.6914 42.6743L173.305 42.6743L173.305 77.3257Z" fill="#FEDD03" fill-opacity="1.000000" fill-rule="nonzero"/>
			<path id="path175" d="M26.6926 42.6743L26.6926 77.3257L173.306 77.3257L173.306 42.6743L26.6926 42.6743Z" stroke="#FEDD03" stroke-opacity="1.000000" stroke-width="0.572500"/>
			<path id="path179" d="M33.9885 51.9019C34.8337 51.0608 38.22 51.4958 40.9172 54.0007C43.6147 56.5046 43.8665 58.8311 43.3274 59.4746C42.7871 60.1184 39.5151 59.6541 37.573 58.1509C37.0686 57.8284 36.4214 57.2795 36.4214 57.2795C34.0242 55.1816 32.9817 53.0952 33.9885 51.9019Z" stroke="#000000" stroke-opacity="1.000000" stroke-width="0.720000"/>
			<path id="path183" d="M36.709 57.4346C35.4873 56.4685 32.7175 53.7852 32.7532 51.1729C32.7532 50.3154 33.7244 48.7412 36.0986 48.812C38.4719 48.884 40.7383 50.2788 43.8298 53.6067C46.9236 56.9348 55.1646 66.4763 56.2742 67.7385C57.7854 69.4558 58.5046 71.03 64.905 71.03L164.024 71.03" stroke="#000000" stroke-opacity="1.000000" stroke-width="0.720000"/>
			<path id="path187" d="M165.884 67.9573C165.038 68.7971 161.652 68.3621 158.954 65.8572C156.256 63.3535 156.006 61.0281 156.545 60.3833C157.085 59.7407 160.357 60.2039 162.299 61.7073C162.802 62.0305 163.45 62.5784 163.45 62.5784C165.848 64.6772 166.89 66.7637 165.884 67.9573Z" stroke="#000000" stroke-opacity="1.000000" stroke-width="0.720000"/>
			<path id="path191" d="M163.163 62.4231C164.385 63.3892 167.155 66.0732 167.119 68.6846C167.119 69.5442 166.149 71.1174 163.774 71.0454C161.4 70.9746 159.134 69.5786 156.042 66.2517C152.949 62.9248 144.708 53.3813 143.599 52.1199C142.088 50.4016 141.367 48.8286 134.967 48.8286L35.9192 48.8286" stroke="#000000" stroke-opacity="1.000000" stroke-width="0.720000"/>
			<path id="path195" d="M35.0562 51.5063L41.53 51.5063" stroke="#000000" stroke-opacity="1.000000" stroke-width="0.771250"/>
			<path id="path199" d="M42.824 59.7356L49.2979 59.7356" stroke="#000000" stroke-opacity="1.000000" stroke-width="0.771250"/>
			<path id="path203" d="M150.575 60.1184L157.335 60.1184" stroke="#000000" stroke-opacity="1.000000" stroke-width="0.771250"/>
			<path id="path207" d="M158.415 68.3464L164.889 68.3464" stroke="#000000" stroke-opacity="1.000000" stroke-width="0.771250"/>
			<path id="path211" d="M33.761 53.8579L40.6187 53.8579" stroke="#000000" stroke-opacity="1.000000" stroke-width="0.515000"/>
			<path id="path215" d="M35.1033 55.9089L42.4402 55.9089" stroke="#000000" stroke-opacity="1.000000" stroke-width="0.515000"/>
			<path id="path219" d="M37.4536 58.0081L47.7153 58.0081" stroke="#000000" stroke-opacity="1.000000" stroke-width="0.515000"/>
			<path id="path223" d="M43.5918 58.6755L48.291 58.6755" stroke="#000000" stroke-opacity="1.000000" stroke-width="0.515000"/>
			<path id="path227" d="M42.824 56.2908L46.0374 56.2908" stroke="#000000" stroke-opacity="1.000000" stroke-width="0.515000"/>
			<path id="path231" d="M41.0024 54.002L43.9263 54.002" stroke="#000000" stroke-opacity="1.000000" stroke-width="0.515000"/>
			<path id="path235" d="M39.6589 52.9043L42.9678 52.9043" stroke="#000000" stroke-opacity="1.000000" stroke-width="0.515000"/>
			<path id="path239" d="M32.7532 51.4043L34.8159 51.4043" stroke="#000000" stroke-opacity="1.000000" stroke-width="0.515000"/>
			<path id="path243" d="M32.8486 50.6614L40.4258 50.6614" stroke="#000000" stroke-opacity="1.000000" stroke-width="0.515000"/>
			<path id="path247" d="M33.3772 49.7568L39.3225 49.7568" stroke="#000000" stroke-opacity="1.000000" stroke-width="0.515000"/>
			<path id="path251" d="M40.3301 50.2808L141.607 50.2808" stroke="#000000" stroke-opacity="1.000000" stroke-width="0.515000"/>
			<path id="path255" d="M143.094 51.9436L42.1035 51.9436" stroke="#000000" stroke-opacity="1.000000" stroke-width="0.515000"/>
			<path id="path259" d="M43.3999 53.0129L57.4214 53.0129" stroke="#000000" stroke-opacity="1.000000" stroke-width="0.515000"/>
			<path id="path263" d="M44.3584 54.2063L57.4214 54.2063" stroke="#000000" stroke-opacity="1.000000" stroke-width="0.515000"/>
			<path id="path267" d="M45.3169 55.2966L57.4202 55.2966" stroke="#000000" stroke-opacity="1.000000" stroke-width="0.515000"/>
			<path id="path271" d="M46.5156 56.4827L57.4214 56.4827" stroke="#000000" stroke-opacity="1.000000" stroke-width="0.515000"/>
			<path id="path275" d="M47.3787 57.6616L57.4211 57.6616" stroke="#000000" stroke-opacity="1.000000" stroke-width="0.515000"/>
			<path id="path279" d="M48.5774 58.9146L57.4214 58.9146" stroke="#000000" stroke-opacity="1.000000" stroke-width="0.515000"/>
			<path id="path283" d="M49.8726 60.1895L57.4214 60.1895" stroke="#000000" stroke-opacity="1.000000" stroke-width="0.515000"/>
			<path id="path287" d="M51.646 62.3511L57.4214 62.3511" stroke="#000000" stroke-opacity="1.000000" stroke-width="0.515000"/>
			<path id="path291" d="M53.2285 64.0671L57.4202 64.0671" stroke="#000000" stroke-opacity="1.000000" stroke-width="0.515000"/>
			<path id="path295" d="M54.6191 65.7363L57.4202 65.7363" stroke="#000000" stroke-opacity="1.000000" stroke-width="0.515000"/>
			<path id="path299" d="M55.7705 67.0715L57.4211 67.0715" stroke="#000000" stroke-opacity="1.000000" stroke-width="0.515000"/>
			<path id="path303" d="M57.0176 68.4341L158.343 68.4341" stroke="#000000" stroke-opacity="1.000000" stroke-width="0.515000"/>
			<path id="path307" d="M58.3608 69.6819L159.829 69.6819" stroke="#000000" stroke-opacity="1.000000" stroke-width="0.515000"/>
			<path id="path311" d="M163.523 62.7307L156.81 62.7307" stroke="#000000" stroke-opacity="1.000000" stroke-width="0.515000"/>
			<path id="path315" d="M165.296 64.5918L157.816 64.5918" stroke="#000000" stroke-opacity="1.000000" stroke-width="0.515000"/>
			<path id="path319" d="M141.914 53.9058L145.06 53.9058" stroke="#000000" stroke-opacity="1.000000" stroke-width="0.515000"/>
			<path id="path323" d="M146.355 55.4468L141.914 55.4468" stroke="#000000" stroke-opacity="1.000000" stroke-width="0.515000"/>
			<path id="path327" d="M148.225 57.4841L141.915 57.4841" stroke="#000000" stroke-opacity="1.000000" stroke-width="0.515000"/>
			<path id="path331" d="M149.425 58.738L141.915 58.738" stroke="#000000" stroke-opacity="1.000000" stroke-width="0.515000"/>
			<path id="path335" d="M150.165 59.7271L141.916 59.7271" stroke="#000000" stroke-opacity="1.000000" stroke-width="0.515000"/>
			<path id="path339" d="M156.331 61.6362L152.062 61.6362" stroke="#000000" stroke-opacity="1.000000" stroke-width="0.515000"/>
			<path id="path343" d="M156.521 62.4937L152.638 62.4937" stroke="#000000" stroke-opacity="1.000000" stroke-width="0.515000"/>
			<path id="path347" d="M157.002 63.2095L153.357 63.2095" stroke="#000000" stroke-opacity="1.000000" stroke-width="0.515000"/>
			<path id="path351" d="M152.206 62.1121L141.915 62.1121" stroke="#000000" stroke-opacity="1.000000" stroke-width="0.515000"/>
			<path id="path355" d="M153.598 63.4954L141.915 63.4954" stroke="#000000" stroke-opacity="1.000000" stroke-width="0.515000"/>
			<path id="path359" d="M154.316 64.3528L141.915 64.3528" stroke="#000000" stroke-opacity="1.000000" stroke-width="0.515000"/>
			<path id="path363" d="M141.915 65.4514L155.323 65.4514" stroke="#000000" stroke-opacity="1.000000" stroke-width="0.515000"/>
			<path id="path367" d="M155.947 66.3308L141.915 66.3308" stroke="#000000" stroke-opacity="1.000000" stroke-width="0.515000"/>
			<path id="path371" d="M157.097 67.3667L141.915 67.3667" stroke="#000000" stroke-opacity="1.000000" stroke-width="0.515000"/>
			<path id="path375" d="M157.433 67.5503L161.461 67.5503" stroke="#000000" stroke-opacity="1.000000" stroke-width="0.515000"/>
			<path id="path379" d="M156.665 66.7878L160.022 66.7878" stroke="#000000" stroke-opacity="1.000000" stroke-width="0.515000"/>
			<path id="path383" d="M155.994 66.072L159.014 66.072" stroke="#000000" stroke-opacity="1.000000" stroke-width="0.515000"/>
			<path id="path387" d="M155.227 65.2605L158.344 65.2605" stroke="#000000" stroke-opacity="1.000000" stroke-width="0.515000"/>
			<path id="path391" d="M159.639 69.5063L166.832 69.5063" stroke="#000000" stroke-opacity="1.000000" stroke-width="0.515000"/>
			<path id="path395" d="M68.3354 63.2148L68.3354 53.2446L65.5532 53.2446L65.5532 62.7371C65.5532 63.8345 64.3062 64.3049 63.5396 64.3049C63.1074 64.3049 61.333 63.5894 60.9031 63.2075L59.7998 65.3066C59.7998 65.3066 61.6697 66.9277 63.8269 66.9277C65.9851 66.9277 66.9919 65.8794 67.377 65.4495C67.7595 65.0208 68.3354 63.9775 68.3354 63.2148Z" fill="#000000" fill-opacity="1.000000" fill-rule="nonzero"/>
			<path id="path399" d="M71.0684 66.9526C71.9294 66.9526 72.6289 66.2578 72.6289 65.4004C72.6289 64.5437 71.9294 63.8501 71.0684 63.8501C70.2073 63.8501 69.5078 64.5437 69.5078 65.4004C69.5078 66.2578 70.2073 66.9526 71.0684 66.9526Z" fill="#000000" fill-opacity="1.000000" fill-rule="nonzero"/>
			<path id="path403" d="M88.1865 66.9526C89.0474 66.9526 89.7471 66.2578 89.7471 65.4004C89.7471 64.5437 89.0474 63.8501 88.1865 63.8501C87.3254 63.8501 86.626 64.5437 86.626 65.4004C86.626 66.2578 87.3254 66.9526 88.1865 66.9526Z" fill="#000000" fill-opacity="1.000000" fill-rule="nonzero"/>
			<path id="path407" d="M80.8738 58.949C81.6614 58.949 82.2981 58.3135 82.2981 57.5322C82.2981 56.7498 81.6614 56.1145 80.8738 56.1145L78.981 56.1113L78.981 58.9375L80.8738 58.949ZM81.1455 64.4551C81.9949 64.4551 82.6841 63.8115 82.6841 62.9644C82.6841 62.1204 81.9949 61.4338 81.1455 61.4338L78.981 61.4309L78.981 64.4468L81.1455 64.4551ZM78.981 66.887L76.1997 66.887L76.1997 53.2444L78.981 53.2444C80.168 53.2444 79.3638 53.2485 81.522 53.2485C84.2192 53.2485 85.2974 55.574 85.2974 56.5046C85.2974 57.4351 85.4778 58.8665 83.7158 59.8679C85.4065 60.7266 85.8018 61.9419 85.8018 63.0874C85.8018 64.2329 84.8665 66.8806 81.4507 66.8806L78.981 66.887Z" fill="#000000" fill-opacity="1.000000" fill-rule="nonzero"/>
			<path id="path411" d="M101.734 53.2446L101.734 58.9741L97.7532 58.9741L97.7532 53.2446L94.9729 53.2446L94.9729 66.8809L97.7532 66.8684L97.7532 61.3716L101.734 61.3716L101.734 66.8809L104.515 66.8684L104.515 53.2446L101.734 53.2446Z" fill="#000000" fill-opacity="1.000000" fill-rule="nonzero"/>
			<path id="path415" d="M112.283 64.3008C113.294 64.3008 114.096 63.5205 114.096 62.5149L114.093 53.2488L116.719 53.2488L116.719 61.4424C116.719 63.5413 116.958 64.5898 115.952 65.6394C114.944 66.6887 113.553 67.2375 112.283 67.2375C111.012 67.2375 109.622 66.6887 108.614 65.6394C107.607 64.5898 107.847 63.5413 107.847 61.4424L107.847 53.2488L110.472 53.2488L110.47 62.5149C110.47 63.5205 111.272 64.3008 112.283 64.3008Z" fill="#000000" fill-opacity="1.000000" fill-rule="nonzero"/>
			<path id="path419" d="M139.03 53.2498L130.47 53.2498L130.47 55.7913L133.349 55.7913L133.349 66.8809L136.154 66.8809L136.154 55.7913L139.03 55.7913L139.03 53.2498Z" fill="#000000" fill-opacity="1.000000" fill-rule="nonzero"/>
			<path id="path423" d="M125.939 66.8455L122.234 59.332L122.234 66.8809L119.644 66.8809L119.644 53.2498L122.234 53.2498L125.813 59.8328L125.827 59.5281L125.827 53.2498L128.417 53.2498L128.417 66.8809L125.952 66.8809L125.939 66.8455Z" fill="#000000" fill-opacity="1.000000" fill-rule="nonzero"/>
		</g>
	</g>
</svg>
