<svg width="127.600098" height="36.674805" viewBox="0 0 127.6 36.6748" fill="none" xmlns="http://www.w3.org/2000/svg" xmlns:xlink="http://www.w3.org/1999/xlink">
	<desc>
			Created with Pixso.
	</desc>
	<defs/>
	<path id="Vector" d="M70.2622 4.00317L70.2622 1.24292C70.2651 0.822754 70.5815 0.541748 70.9644 0.541748L83.3291 0.541748C83.7275 0.541748 84.0432 0.830811 84.0432 1.24048L84.0432 3.61182C84.0386 4.00342 83.7041 4.52417 83.1121 5.34839L76.7017 14.5029C79.0806 14.4473 81.5974 14.8027 83.759 16.02C84.2458 16.2952 84.3782 16.6965 84.4153 17.0957L84.4153 20.0474C84.4153 20.4556 83.9702 20.9268 83.5068 20.6814C79.697 18.6807 74.646 18.4631 70.438 20.7053C70.0068 20.9358 69.5581 20.4741 69.5581 20.0662L69.5581 17.2581C69.5581 16.8105 69.5654 16.043 70.0173 15.3601L77.4375 4.70117L70.978 4.70117C70.5833 4.70117 70.2668 4.41943 70.2622 4.00317ZM25.1553 21.2625L21.3928 21.2625C21.0349 21.2407 20.7463 20.9709 20.7197 20.6267L20.7231 1.29004C20.7231 0.904541 21.0454 0.59375 21.4482 0.59375L24.9519 0.592285C25.3188 0.612549 25.6123 0.890137 25.6365 1.24292L25.6365 3.76831L25.7053 3.76831C26.6165 1.32666 28.3396 0.185303 30.6553 0.185303C33.01 0.185303 34.4807 1.32666 35.5371 3.76831C36.4512 1.32666 38.521 0.185303 40.7358 0.185303C42.3171 0.185303 44.0361 0.837646 45.0913 2.30273C46.2866 3.92578 46.0396 6.28955 46.0396 8.36035L46.0381 20.5654C46.0381 20.9531 45.7102 21.2622 45.311 21.2622L41.5544 21.2622C41.175 21.2405 40.8789 20.9399 40.8789 20.5693L40.8774 10.3154C40.8774 9.50244 40.946 7.47046 40.7703 6.69385C40.4873 5.39258 39.645 5.02637 38.5564 5.02637C37.6472 5.02637 36.697 5.63696 36.3093 6.61377C35.925 7.59106 35.9585 9.21509 35.9585 10.3154L35.9585 20.5649C35.9585 20.9529 35.6333 21.262 35.2327 21.262L31.4753 21.262C31.0969 21.24 30.7988 20.9395 30.7988 20.5688L30.7939 10.3152C30.7939 8.15723 31.147 4.9856 28.4792 4.9856C25.7727 4.9856 25.8787 8.08081 25.8787 10.3152L25.8772 20.5645C25.877 20.9534 25.5581 21.2625 25.1553 21.2625ZM94.6919 0.185547C100.271 0.185547 103.297 4.98633 103.297 11.0891C103.297 16.9856 99.9543 21.6707 94.6919 21.6707C89.2112 21.6707 86.2239 16.8611 86.2239 10.8833C86.2239 4.86523 89.2451 0.185547 94.6919 0.185547ZM94.7275 4.13037C91.9495 4.13037 91.7732 7.9187 91.7732 10.2712C91.7732 12.6321 91.7378 17.6753 94.6917 17.6753C97.6003 17.6753 97.7388 13.6082 97.7388 11.1328C97.7388 9.50317 97.6704 7.55103 97.177 6.00366C96.7571 4.65894 95.9138 4.13037 94.7275 4.13037ZM110.535 21.2625L106.784 21.2625C106.405 21.2407 106.109 20.9399 106.109 20.5696L106.101 1.22583C106.134 0.871094 106.446 0.593506 106.825 0.593506L110.319 0.592285C110.649 0.609619 110.92 0.834473 110.988 1.13525L110.988 4.09082L111.059 4.09082C112.112 1.44873 113.581 0.185059 116.18 0.185059C117.868 0.185059 119.522 0.796631 120.575 2.4668C121.553 4.00781 121.553 6.61401 121.553 8.48438L121.553 20.6516C121.51 20.998 121.201 21.2622 120.839 21.2622L117.062 21.2622C116.719 21.2419 116.434 20.9817 116.39 20.6516L116.39 10.1536C116.39 8.04126 116.64 4.94458 114.036 4.94458C113.122 4.94458 112.288 5.55688 111.864 6.49316C111.338 7.67383 111.269 8.8501 111.269 10.1536L111.269 20.5654C111.26 20.9534 110.936 21.2625 110.535 21.2625ZM17.782 17.7146C17.0977 16.7605 16.3655 15.9902 16.3655 14.2249L16.3655 8.35571C16.3655 5.87231 16.5432 3.59009 14.7102 1.87744C13.2656 0.489258 10.8733 0 9.04126 0C5.46045 0 1.46753 1.33789 0.628662 5.76685C0.539307 6.24072 0.881836 6.48633 1.19067 6.55591L4.8374 6.95166C5.17651 6.93408 5.42529 6.59595 5.49072 6.25732C5.80444 4.72974 7.0813 3.99414 8.51611 3.99414C9.2876 3.99414 10.1677 4.28125 10.6274 4.97437C11.1553 5.74707 11.0842 6.80981 11.0842 7.70703L11.0842 8.19189C8.90063 8.43774 6.04932 8.6001 4.01099 9.49805C1.65234 10.5198 0 12.5957 0 15.6567C0 19.5737 2.46191 21.531 5.62695 21.531C8.30762 21.531 9.76562 20.8979 11.833 18.7913C12.5166 19.7812 12.7397 20.259 13.9885 21.3032C14.2695 21.4521 14.6282 21.4404 14.8782 21.2146L14.8865 21.2236C15.6384 20.5527 17.0059 19.3645 17.7703 18.7207C18.0754 18.467 18.0215 18.0562 17.782 17.7146ZM10.3794 16.0225C9.78003 17.0774 8.83203 17.7307 7.77661 17.7307C6.33252 17.7307 5.48828 16.6292 5.48828 15.0022C5.48828 11.7959 8.36426 11.2141 11.085 11.2141L11.085 12.0278C11.085 13.4915 11.1194 14.7163 10.3794 16.0225ZM67.1042 17.7146C66.4146 16.7605 65.6836 15.9902 65.6836 14.2249L65.6836 8.35571C65.6836 5.87231 65.8599 3.59009 64.0269 1.87744C62.5886 0.489258 60.1929 0 58.3645 0C54.7844 0 50.7891 1.33789 49.9512 5.76685C49.8618 6.24072 50.2043 6.48633 50.5127 6.55591L54.157 6.95166C54.5012 6.93408 54.7483 6.59595 54.8125 6.25732C55.1282 4.72974 56.3994 3.99414 57.8364 3.99414C58.6099 3.99414 59.4917 4.28125 59.947 4.97437C60.4734 5.74707 60.4031 6.80981 60.4031 7.70703L60.4031 8.19189C58.2224 8.43774 55.3726 8.6001 53.3328 9.49805C50.9744 10.5198 49.3196 12.5957 49.3196 15.6567C49.3196 19.5737 51.78 21.531 54.9495 21.531C57.623 21.531 59.0889 20.8979 61.1538 18.7913C61.8359 19.7812 62.0608 20.259 63.3096 21.3032C63.5925 21.4521 63.9475 21.4404 64.1963 21.2146L64.2043 21.2236C64.958 20.5527 66.3252 19.3645 67.0935 18.7207C67.3997 18.467 67.3472 18.0562 67.1042 17.7146ZM59.6987 16.0225C59.1042 17.0774 58.1523 17.7307 57.0962 17.7307C55.6521 17.7307 54.8113 16.6292 54.8113 15.0022C54.8113 11.7959 57.6833 11.2141 60.4036 11.2141L60.4036 12.0278C60.4036 13.4915 60.4399 14.7163 59.6987 16.0225Z" fill="#F3F3F3" fill-opacity="1.000000" fill-rule="nonzero"/>
	<path id="Vector" d="M75.2861 28.7764C68.1089 33.9048 58.1113 36.6746 49.291 36.6746C36.936 36.6746 25.9238 32.1975 17.439 24.5276C16.6543 23.8181 17.1611 22.9861 18.1367 23.5474C27.3669 28.8909 38.4285 32.0171 50.0352 32.0171C57.8623 32.0171 66.176 30.4568 74.0764 27.0923C75.804 26.3552 76.52 27.8936 75.2861 28.7764Z" fill="#F9A51B" fill-opacity="1.000000" fill-rule="nonzero"/>
	<path id="Vector" d="M78.3528 25.3152C77.4451 24.1543 72.3762 24.7664 70.0991 25.0354C69.4136 25.1196 69.302 24.5161 69.9268 24.0798C73.9697 21.2507 80.5969 22.0742 81.3633 23.0081C82.1382 23.9688 81.1584 30.6252 77.3708 33.8025C76.7869 34.2944 76.2388 34.0276 76.4958 33.3838C77.3459 31.249 79.2559 26.4717 78.3528 25.3152Z" fill="#F9A51B" fill-opacity="1.000000" fill-rule="nonzero"/>
	<path id="Vector" d="M125.833 18.1047C126.256 18.1047 126.617 18.2542 126.914 18.5525C127.211 18.8484 127.361 19.208 127.361 19.6292C127.361 20.053 127.211 20.4131 126.914 20.7109C126.618 21.0095 126.258 21.1592 125.833 21.1592C125.409 21.1592 125.049 21.0095 124.752 20.7109C124.457 20.4131 124.309 20.0525 124.309 19.6292C124.309 19.208 124.457 18.8484 124.756 18.5525C125.053 18.2542 125.413 18.1047 125.833 18.1047ZM127.6 19.6255C127.6 19.1382 127.427 18.7227 127.083 18.3796C126.738 18.0364 126.319 17.8647 125.831 17.8647C125.345 17.8647 124.931 18.0364 124.586 18.3796C124.242 18.7244 124.069 19.1392 124.069 19.6255C124.069 20.116 124.24 20.5339 124.582 20.8784C124.925 21.2258 125.342 21.3994 125.831 21.3994C126.319 21.3994 126.737 21.2258 127.082 20.8784C127.427 20.5334 127.6 20.1155 127.6 19.6255ZM126.3 19.2439C126.3 19.3896 126.233 19.4888 126.099 19.542C126.024 19.5713 125.914 19.5842 125.768 19.5842L125.455 19.5842L125.455 18.8926L125.75 18.8926C125.944 18.8926 126.082 18.9148 126.171 18.9626C126.257 19.011 126.3 19.1033 126.3 19.2439ZM125.122 18.6523L125.122 20.5862L125.455 20.5862L125.455 19.824L125.728 19.824C125.913 19.824 126.042 19.8455 126.114 19.8857C126.239 19.9595 126.3 20.1055 126.3 20.3298L126.3 20.4829L126.308 20.5447L126.312 20.5667C126.315 20.572 126.316 20.5798 126.317 20.5862L126.635 20.5862L126.622 20.5615C126.613 20.5447 126.607 20.5125 126.604 20.4614C126.6 20.4099 126.6 20.3625 126.6 20.3171L126.6 20.1768C126.6 20.0789 126.564 19.9785 126.495 19.8752C126.424 19.7734 126.315 19.7104 126.163 19.687C126.282 19.668 126.375 19.6372 126.443 19.5935C126.571 19.5105 126.635 19.3835 126.635 19.2114C126.635 18.969 126.533 18.8059 126.332 18.7217C126.22 18.676 126.043 18.6528 125.802 18.6528L125.122 18.6523Z" fill="#F3F3F3" fill-opacity="1.000000" fill-rule="nonzero"/>
</svg>
