<svg width="119.200195" height="34.546631" viewBox="0 0 119.2 34.5466" fill="none" xmlns="http://www.w3.org/2000/svg" xmlns:xlink="http://www.w3.org/1999/xlink">
	<desc>
			Created with Pixso.
	</desc>
	<defs/>
	<path id="Vector" d="M102.802 33.3379L98.1799 28.1553L93.6035 33.3379L83.9697 33.3379L93.3875 22.7561L83.9697 12.1743L93.9053 12.1743L98.5701 17.3142L103.061 12.1743L112.649 12.1743L103.276 22.7126L112.779 33.3369L102.802 33.3379ZM65.4653 33.3379L65.4653 0L83.9697 0L83.9697 7.43115L73.303 7.43115L73.303 12.1743L83.9697 12.1743L83.9697 19.3232L73.303 19.3232L73.303 25.8862L83.9697 25.8862L83.9697 33.3379L65.4653 33.3379Z" fill="#D9782D" fill-opacity="1.000000" fill-rule="evenodd"/>
	<path id="Vector" d="M57.6602 0L57.6602 13.6433L57.5742 13.6433C55.8469 11.6565 53.6875 10.9653 51.1829 10.9653C46.0503 10.9653 42.1848 14.4556 40.8286 19.0671C39.2803 13.9861 35.2893 10.8713 29.3723 10.8713C24.5662 10.8713 20.7717 13.0283 18.7908 16.543L18.7908 12.1743L8.85596 12.1743L8.85596 7.43115L19.696 7.43115L19.696 0L0 0L0 33.3379L8.85596 33.3379L8.85596 19.3232L17.6816 19.3232C17.4094 20.4004 17.2737 21.5076 17.2773 22.6187C17.2773 29.5728 22.5908 34.4526 29.3716 34.4526C35.0728 34.4526 38.8296 31.7756 40.8171 26.8958L33.2283 26.8958C32.2024 28.363 31.4231 28.7974 29.3716 28.7974C26.9915 28.7974 24.9399 26.7222 24.9399 24.2603L40.3926 24.2603C41.0625 29.783 45.365 34.5466 51.2688 34.5466C53.8167 34.5466 56.1494 33.2944 57.5742 31.1775L57.6602 31.1775L57.6602 33.3379L65.4651 33.3379L65.4651 0L57.6602 0ZM25.1863 19.4229C25.6785 17.3069 27.3201 15.9221 29.3716 15.9221C31.6274 15.9221 33.1873 17.2644 33.5972 19.4229L25.1863 19.4229ZM52.9226 28.2625C50.0452 28.2625 48.2581 25.5803 48.2581 22.7815C48.2581 19.7886 49.812 16.9119 52.9226 16.9119C56.1479 16.9119 57.4312 19.7886 57.4312 22.7815C57.4312 25.6179 56.0701 28.2625 52.9226 28.2625Z" fill="#F3F3F3" fill-opacity="1.000000" fill-rule="evenodd"/>
	<path id="Vector" d="M114.913 31.1899C114.913 30.9082 114.969 30.6294 115.078 30.3694C115.186 30.1094 115.344 29.8733 115.544 29.6746C115.744 29.4758 115.981 29.3184 116.241 29.2112C116.502 29.104 116.781 29.0496 117.063 29.0503C117.344 29.0503 117.622 29.1057 117.881 29.2131C118.141 29.3208 118.377 29.4785 118.575 29.6772C118.774 29.876 118.931 30.1118 119.038 30.3713C119.146 30.6309 119.201 30.9092 119.2 31.1899C119.202 31.4717 119.148 31.751 119.041 32.0115C118.934 32.2722 118.777 32.5093 118.579 32.709C118.38 32.9087 118.144 33.0671 117.884 33.1753C117.624 33.2832 117.345 33.3389 117.063 33.3389C116.781 33.3398 116.5 33.2849 116.239 33.1772C115.978 33.0696 115.741 32.9114 115.541 32.7117C115.341 32.512 115.183 32.2747 115.075 32.0137C114.967 31.7524 114.912 31.4727 114.913 31.1899ZM118.826 31.1899C118.825 30.7229 118.639 30.2749 118.309 29.9443C117.979 29.614 117.531 29.428 117.064 29.4275C116.595 29.4265 116.145 29.6116 115.813 29.9421C115.48 30.2725 115.292 30.7212 115.291 31.1899C115.291 32.1707 116.083 32.9634 117.064 32.9634C117.296 32.9626 117.526 32.9163 117.74 32.8269C117.954 32.7373 118.149 32.6064 118.312 32.4419C118.476 32.2771 118.605 32.0818 118.694 31.8669C118.781 31.6523 118.826 31.4221 118.826 31.1899ZM116.607 31.3315L116.607 32.4219L116.214 32.4219L116.214 29.9019L117.029 29.9019C117.49 29.9019 117.969 30.0278 117.969 30.5979C117.969 30.8875 117.793 31.1165 117.455 31.186L117.455 31.1982C117.805 31.2661 117.845 31.4199 117.883 31.6931C117.918 31.9312 117.946 32.1936 118.033 32.4226L117.53 32.4226C117.501 32.2812 117.463 32.1208 117.445 31.9712C117.416 31.7544 117.416 31.5549 117.301 31.4355C117.205 31.3323 117.074 31.3447 116.937 31.3323L116.607 31.3323L116.607 31.3315ZM117.021 30.9407C117.393 30.9268 117.479 30.7729 117.479 30.5798C117.479 30.3926 117.393 30.2944 117.081 30.2944L116.607 30.2944L116.607 30.9407L117.021 30.9407Z" fill="#D9782D" fill-opacity="1.000000" fill-rule="evenodd"/>
</svg>
