<svg width="21.888184" height="21.928600" viewBox="0 0 21.8882 21.9286" fill="none" xmlns="http://www.w3.org/2000/svg" xmlns:xlink="http://www.w3.org/1999/xlink">
	<desc>
			Created with Pixso.
	</desc>
	<defs/>
	<path id="Vector" d="M20.8875 18.9202C20.8887 19.1987 20.8315 19.4743 20.72 19.7295C20.6084 19.9847 20.4448 20.2137 20.2396 20.402C20.0343 20.5903 19.7921 20.7336 19.5282 20.8229C19.2644 20.9121 18.9849 20.9452 18.7075 20.9202C15.6304 20.5858 12.6746 19.5343 10.0775 17.8502C7.66138 16.3148 5.61279 14.2663 4.07751 11.8502C2.38745 9.24136 1.33569 6.27114 1.00745 3.18015C0.982544 2.90362 1.01538 2.62491 1.104 2.36177C1.19263 2.09864 1.33508 1.85684 1.52222 1.65177C1.70947 1.4467 1.93726 1.28286 2.19128 1.17067C2.44531 1.05848 2.71985 1.00041 2.99756 1.00015L5.99756 1.00015C6.48279 0.995373 6.95325 1.16723 7.32129 1.48368C7.68921 1.80014 7.92957 2.2396 7.99756 2.72015C8.12415 3.68022 8.35901 4.62288 8.69751 5.53015C8.83203 5.88807 8.86121 6.27707 8.78137 6.65103C8.70166 7.025 8.51636 7.36826 8.24756 7.64015L6.97754 8.91015C8.401 11.4137 10.474 13.4866 12.9775 14.9102L14.2476 13.6402C14.5194 13.3713 14.8627 13.186 15.2366 13.1062C15.6106 13.0265 15.9996 13.0556 16.3575 13.1902C17.2648 13.5287 18.2074 13.7635 19.1675 13.8902C19.6533 13.9587 20.0969 14.2034 20.4141 14.5776C20.7312 14.9519 20.8997 15.4297 20.8875 15.9202L20.8875 18.9202Z" stroke="#F3F3F3" stroke-opacity="1.000000" stroke-width="2.000000" stroke-linejoin="round"/>
</svg>
