<svg width="456.000000" height="46.000000" viewBox="0 0 456 46" fill="none" xmlns="http://www.w3.org/2000/svg" xmlns:xlink="http://www.w3.org/1999/xlink">
	<desc>
			Created with Pixso.
	</desc>
	<defs/>
	<path id="Vector 27" d="M130 7.5L220.5 7.5" stroke="#C1C1C1" stroke-opacity="1.000000" stroke-width="3.000000"/>
	<path id="Vector 30" d="M130 7.5L190.5 7.5" stroke="#04FF14" stroke-opacity="1.000000" stroke-width="3.000000"/>
	<circle id="Ellipse 3" cx="19.500000" cy="7.500000" r="6.000000" stroke="#04FF14" stroke-opacity="1.000000" stroke-width="3.000000"/>
	<circle id="Ellipse 4" cx="123.500000" cy="7.500000" r="6.000000" stroke="#04FF14" stroke-opacity="1.000000" stroke-width="3.000000"/>
	<circle id="Ellipse 5" cx="227.500000" cy="7.500000" r="6.000000" stroke="#C1C1C1" stroke-opacity="1.000000" stroke-width="3.000000"/>
	<circle id="Ellipse 6" cx="331.500000" cy="7.500000" r="6.000000" stroke="#C1C1C1" stroke-opacity="1.000000" stroke-width="3.000000"/>
	<circle id="Ellipse 7" cx="435.500000" cy="7.500000" r="6.000000" stroke="#C1C1C1" stroke-opacity="1.000000" stroke-width="3.000000"/>
	<path id="Vector 26" d="M26 7.5L116.5 7.5" stroke="#04FF14" stroke-opacity="1.000000" stroke-width="3.000000"/>
	<path id="Vector 28" d="M234 7.5L324.5 7.5" stroke="#C1C1C1" stroke-opacity="1.000000" stroke-width="3.000000"/>
	<path id="Vector 29" d="M338 7.5L428.5 7.5" stroke="#C1C1C1" stroke-opacity="1.000000" stroke-width="3.000000"/>
	<path id="2017" d="M9.7207 39.4355L9.7207 41L0.667969 41L0.667969 39.7739L5.79639 34.8257Q6.73242 33.9248 7.05322 33.27Q7.37842 32.6108 7.37842 31.9473Q7.37842 30.9541 6.68408 30.4092Q5.99414 29.8599 4.69775 29.8599Q2.61035 29.8599 1.47656 31.2266L0.250488 30.1631Q0.98877 29.2622 2.18408 28.7612Q3.38379 28.2559 4.86035 28.2559Q6.83789 28.2559 8.00684 29.2007Q9.18018 30.1455 9.18018 31.7671Q9.18018 32.7734 8.74512 33.6743Q8.31445 34.5752 7.11035 35.7266L3.25635 39.4355L9.7207 39.4355ZM16.2897 41.145Q14.7956 41.145 13.6354 40.3804Q12.4753 39.6157 11.8073 38.1567Q11.1437 36.6978 11.1437 34.6982Q11.1437 32.7031 11.8073 31.2441Q12.4753 29.7852 13.6354 29.0205Q14.7956 28.2559 16.2897 28.2559Q17.7663 28.2559 18.9264 29.0205Q20.0866 29.7852 20.7502 31.2441Q21.4181 32.7031 21.4181 34.6982Q21.4181 36.6978 20.7502 38.1567Q20.0866 39.6157 18.9264 40.3804Q17.7663 41.145 16.2897 41.145ZM16.2897 39.541Q17.8014 39.541 18.7111 38.3018Q19.6208 37.0581 19.6208 34.6982Q19.6208 32.3428 18.7111 31.1035Q17.8014 29.8599 16.2897 29.8599Q14.7604 29.8599 13.8508 31.1035Q12.9411 32.3428 12.9411 34.6982Q12.9411 37.0581 13.8508 38.3018Q14.7604 39.541 16.2897 39.541ZM26.9981 28.4009L26.9981 41L25.2183 41L25.2183 29.9653L22.375 29.9653L22.375 28.4009L26.9981 28.4009ZM38.9359 28.4009L38.9359 29.6226L33.8382 41L31.931 41L36.9188 29.9653L31.1576 29.9653L31.1576 32.2153L29.4305 32.2153L29.4305 28.4009L38.9359 28.4009Z" fill="#F3F3F3" fill-opacity="1.000000" fill-rule="evenodd"/>
	<path id="2018" d="M112.721 39.4355L112.721 41L103.668 41L103.668 39.7739L108.796 34.8257Q109.732 33.9248 110.053 33.27Q110.378 32.6108 110.378 31.9473Q110.378 30.9541 109.684 30.4092Q108.994 29.8599 107.698 29.8599Q105.61 29.8599 104.477 31.2266L103.25 30.1631Q103.989 29.2622 105.184 28.7612Q106.384 28.2559 107.86 28.2559Q109.838 28.2559 111.007 29.2007Q112.18 30.1455 112.18 31.7671Q112.18 32.7734 111.745 33.6743Q111.314 34.5752 110.11 35.7266L106.256 39.4355L112.721 39.4355ZM119.29 41.145Q117.796 41.145 116.635 40.3804Q115.475 39.6157 114.807 38.1567Q114.144 36.6978 114.144 34.6982Q114.144 32.7031 114.807 31.2441Q115.475 29.7852 116.635 29.0205Q117.796 28.2559 119.29 28.2559Q120.766 28.2559 121.926 29.0205Q123.087 29.7852 123.75 31.2441Q124.418 32.7031 124.418 34.6982Q124.418 36.6978 123.75 38.1567Q123.087 39.6157 121.926 40.3804Q120.766 41.145 119.29 41.145ZM119.29 39.541Q120.801 39.541 121.711 38.3018Q122.621 37.0581 122.621 34.6982Q122.621 32.3428 121.711 31.1035Q120.801 29.8599 119.29 29.8599Q117.76 29.8599 116.851 31.1035Q115.941 32.3428 115.941 34.6982Q115.941 37.0581 116.851 38.3018Q117.76 39.541 119.29 39.541ZM129.998 28.4009L129.998 41L128.218 41L128.218 29.9653L125.375 29.9653L125.375 28.4009L129.998 28.4009ZM140.459 34.395Q141.536 34.8081 142.112 35.5815Q142.692 36.355 142.692 37.436Q142.692 38.5698 142.077 39.4092Q141.466 40.2441 140.332 40.6968Q139.198 41.145 137.669 41.145Q136.157 41.145 135.032 40.6968Q133.907 40.2441 133.292 39.4092Q132.681 38.5698 132.681 37.436Q132.681 36.355 133.248 35.5815Q133.815 34.8081 134.896 34.395Q134.03 33.9819 133.582 33.2964Q133.134 32.6108 133.134 31.6748Q133.134 30.6333 133.701 29.8599Q134.267 29.082 135.291 28.6689Q136.32 28.2559 137.669 28.2559Q139.036 28.2559 140.068 28.6689Q141.105 29.082 141.672 29.8599Q142.239 30.6333 142.239 31.6748Q142.239 32.5933 141.778 33.2876Q141.321 33.9819 140.459 34.395ZM137.669 29.7148Q136.39 29.7148 135.652 30.2642Q134.913 30.8135 134.913 31.7495Q134.913 32.6855 135.643 33.2261Q136.372 33.7622 137.669 33.7622Q138.983 33.7622 139.73 33.2261Q140.477 32.6855 140.477 31.7495Q140.477 30.8135 139.712 30.2642Q138.948 29.7148 137.669 29.7148ZM137.669 39.686Q139.163 39.686 140.024 39.0664Q140.89 38.4424 140.89 37.3833Q140.89 36.3374 140.024 35.7354Q139.163 35.1333 137.669 35.1333Q136.175 35.1333 135.327 35.7354Q134.483 36.3374 134.483 37.3833Q134.483 38.4424 135.327 39.0664Q136.175 39.686 137.669 39.686Z" fill="#F3F3F3" fill-opacity="1.000000" fill-rule="evenodd"/>
	<path id="2019" d="M216.721 39.4355L216.721 41L207.668 41L207.668 39.7739L212.796 34.8257Q213.732 33.9248 214.053 33.27Q214.378 32.6108 214.378 31.9473Q214.378 30.9541 213.684 30.4092Q212.994 29.8599 211.698 29.8599Q209.61 29.8599 208.477 31.2266L207.25 30.1631Q207.989 29.2622 209.184 28.7612Q210.384 28.2559 211.86 28.2559Q213.838 28.2559 215.007 29.2007Q216.18 30.1455 216.18 31.7671Q216.18 32.7734 215.745 33.6743Q215.314 34.5752 214.11 35.7266L210.256 39.4355L216.721 39.4355ZM223.29 41.145Q221.796 41.145 220.635 40.3804Q219.475 39.6157 218.807 38.1567Q218.144 36.6978 218.144 34.6982Q218.144 32.7031 218.807 31.2441Q219.475 29.7852 220.635 29.0205Q221.796 28.2559 223.29 28.2559Q224.766 28.2559 225.926 29.0205Q227.087 29.7852 227.75 31.2441Q228.418 32.7031 228.418 34.6982Q228.418 36.6978 227.75 38.1567Q227.087 39.6157 225.926 40.3804Q224.766 41.145 223.29 41.145ZM223.29 39.541Q224.801 39.541 225.711 38.3018Q226.621 37.0581 226.621 34.6982Q226.621 32.3428 225.711 31.1035Q224.801 29.8599 223.29 29.8599Q221.76 29.8599 220.851 31.1035Q219.941 32.3428 219.941 34.6982Q219.941 37.0581 220.851 38.3018Q221.76 39.541 223.29 39.541ZM233.998 28.4009L233.998 41L232.218 41L232.218 29.9653L229.375 29.9653L229.375 28.4009L233.998 28.4009ZM240.838 28.2559Q243.378 28.2559 244.754 29.895Q246.134 31.5342 246.134 34.54Q246.134 36.645 245.387 38.1304Q244.64 39.6157 243.295 40.3804Q241.954 41.145 240.175 41.145Q239.256 41.145 238.443 40.9561Q237.635 40.7671 237.041 40.4067L237.727 39.0005Q238.645 39.5981 240.157 39.5981Q242.117 39.5981 243.224 38.3853Q244.332 37.168 244.332 34.8433L244.332 34.395Q243.791 35.2036 242.838 35.6299Q241.884 36.0518 240.698 36.0518Q239.454 36.0518 238.474 35.5859Q237.494 35.1157 236.945 34.2412Q236.395 33.3667 236.395 32.2329Q236.395 31.0464 236.98 30.1455Q237.564 29.2446 238.571 28.7524Q239.581 28.2559 240.838 28.2559ZM241.001 34.5928Q241.849 34.5928 242.513 34.2676Q243.181 33.9424 243.55 33.3843Q243.919 32.8262 243.919 32.145Q243.919 31.4771 243.567 30.9277Q243.216 30.3784 242.539 30.0488Q241.867 29.7148 240.913 29.7148Q239.669 29.7148 238.905 30.3828Q238.14 31.0464 238.14 32.1626Q238.14 33.2788 238.913 33.938Q239.687 34.5928 241.001 34.5928Z" fill="#F3F3F3" fill-opacity="1.000000" fill-rule="evenodd"/>
	<path id="2020" d="M318.721 39.4355L318.721 41L309.668 41L309.668 39.7739L314.796 34.8257Q315.732 33.9248 316.053 33.27Q316.378 32.6108 316.378 31.9473Q316.378 30.9541 315.684 30.4092Q314.994 29.8599 313.698 29.8599Q311.61 29.8599 310.477 31.2266L309.25 30.1631Q309.989 29.2622 311.184 28.7612Q312.384 28.2559 313.86 28.2559Q315.838 28.2559 317.007 29.2007Q318.18 30.1455 318.18 31.7671Q318.18 32.7734 317.745 33.6743Q317.314 34.5752 316.11 35.7266L312.256 39.4355L318.721 39.4355ZM325.29 41.145Q323.796 41.145 322.635 40.3804Q321.475 39.6157 320.807 38.1567Q320.144 36.6978 320.144 34.6982Q320.144 32.7031 320.807 31.2441Q321.475 29.7852 322.635 29.0205Q323.796 28.2559 325.29 28.2559Q326.766 28.2559 327.926 29.0205Q329.087 29.7852 329.75 31.2441Q330.418 32.7031 330.418 34.6982Q330.418 36.6978 329.75 38.1567Q329.087 39.6157 327.926 40.3804Q326.766 41.145 325.29 41.145ZM325.29 39.541Q326.801 39.541 327.711 38.3018Q328.621 37.0581 328.621 34.6982Q328.621 32.3428 327.711 31.1035Q326.801 29.8599 325.29 29.8599Q323.76 29.8599 322.851 31.1035Q321.941 32.3428 321.941 34.6982Q321.941 37.0581 322.851 38.3018Q323.76 39.541 325.29 39.541ZM340.951 39.4355L340.951 41L331.898 41L331.898 39.7739L337.026 34.8257Q337.962 33.9248 338.283 33.27Q338.608 32.6108 338.608 31.9473Q338.608 30.9541 337.914 30.4092Q337.224 29.8599 335.928 29.8599Q333.84 29.8599 332.707 31.2266L331.48 30.1631Q332.219 29.2622 333.414 28.7612Q334.614 28.2559 336.09 28.2559Q338.068 28.2559 339.237 29.2007Q340.41 30.1455 340.41 31.7671Q340.41 32.7734 339.975 33.6743Q339.544 34.5752 338.34 35.7266L334.486 39.4355L340.951 39.4355ZM347.52 41.145Q346.026 41.145 344.865 40.3804Q343.705 39.6157 343.037 38.1567Q342.374 36.6978 342.374 34.6982Q342.374 32.7031 343.037 31.2441Q343.705 29.7852 344.865 29.0205Q346.026 28.2559 347.52 28.2559Q348.996 28.2559 350.156 29.0205Q351.317 29.7852 351.98 31.2441Q352.648 32.7031 352.648 34.6982Q352.648 36.6978 351.98 38.1567Q351.317 39.6157 350.156 40.3804Q348.996 41.145 347.52 41.145ZM347.52 39.541Q349.031 39.541 349.941 38.3018Q350.851 37.0581 350.851 34.6982Q350.851 32.3428 349.941 31.1035Q349.031 29.8599 347.52 29.8599Q345.99 29.8599 345.081 31.1035Q344.171 32.3428 344.171 34.6982Q344.171 37.0581 345.081 38.3018Q345.99 39.541 347.52 39.541Z" fill="#F3F3F3" fill-opacity="1.000000" fill-rule="evenodd"/>
	<path id="2021" d="M425.721 39.4355L425.721 41L416.668 41L416.668 39.7739L421.796 34.8257Q422.732 33.9248 423.053 33.27Q423.378 32.6108 423.378 31.9473Q423.378 30.9541 422.684 30.4092Q421.994 29.8599 420.698 29.8599Q418.61 29.8599 417.477 31.2266L416.25 30.1631Q416.989 29.2622 418.184 28.7612Q419.384 28.2559 420.86 28.2559Q422.838 28.2559 424.007 29.2007Q425.18 30.1455 425.18 31.7671Q425.18 32.7734 424.745 33.6743Q424.314 34.5752 423.11 35.7266L419.256 39.4355L425.721 39.4355ZM432.29 41.145Q430.796 41.145 429.635 40.3804Q428.475 39.6157 427.807 38.1567Q427.144 36.6978 427.144 34.6982Q427.144 32.7031 427.807 31.2441Q428.475 29.7852 429.635 29.0205Q430.796 28.2559 432.29 28.2559Q433.766 28.2559 434.926 29.0205Q436.087 29.7852 436.75 31.2441Q437.418 32.7031 437.418 34.6982Q437.418 36.6978 436.75 38.1567Q436.087 39.6157 434.926 40.3804Q433.766 41.145 432.29 41.145ZM432.29 39.541Q433.801 39.541 434.711 38.3018Q435.621 37.0581 435.621 34.6982Q435.621 32.3428 434.711 31.1035Q433.801 29.8599 432.29 29.8599Q430.76 29.8599 429.851 31.1035Q428.941 32.3428 428.941 34.6982Q428.941 37.0581 429.851 38.3018Q430.76 39.541 432.29 39.541ZM447.951 39.4355L447.951 41L438.898 41L438.898 39.7739L444.026 34.8257Q444.962 33.9248 445.283 33.27Q445.608 32.6108 445.608 31.9473Q445.608 30.9541 444.914 30.4092Q444.224 29.8599 442.928 29.8599Q440.84 29.8599 439.707 31.2266L438.48 30.1631Q439.219 29.2622 440.414 28.7612Q441.614 28.2559 443.09 28.2559Q445.068 28.2559 446.237 29.2007Q447.41 30.1455 447.41 31.7671Q447.41 32.7734 446.975 33.6743Q446.544 34.5752 445.34 35.7266L441.486 39.4355L447.951 39.4355ZM453.33 28.4009L453.33 41L451.55 41L451.55 29.9653L448.707 29.9653L448.707 28.4009L453.33 28.4009Z" fill="#F3F3F3" fill-opacity="1.000000" fill-rule="evenodd"/>
</svg>
